:SAMPLES-PER-SECOND 30
:FULLY-SPECIFIED
:DEGREES
57
root  22.04624386 37.74911175 -46.0915543 -2.89654994 1.741770029 3.02850008
lowerback  5.442810059 -1.577180028 -3.337769985
upperback  3.251840115 -2.245810032 0.8259400129
thorax  0.4623779953 -1.17956996 2.828649998
lowerneck  -12.87629986 3.428129911 -1.156239986
upperneck  -2.715440035 4.731910229 -1.773880005
head  1.324530005 2.322779894 -0.1283629984
lclavicle  0 -1.620099928e-014 -1.431250036e-014
lhumerus  -23.89970016 -6.153260231 90.78230286
lradius  -1.862537918e-031 -2.99996609e-031 58.16579819
lwrist  0 -3.442846912e-030 28.11000061
lhand  -1.522208093e-030 -21.89089966 22.84740067
lfingers  90 7.125020027 -90
lthumb  90.61603193 7.755020578 85.4441456
rclavicle  0 -1.620099928e-014 -1.431250036e-014
rhumerus  -40.21640015 -4.818220139 -83.2826004
rradius  3.285513388e-031 1.293926509e-031 21.4958992
rwrist  0 7.062250077e-031 -7.793859959
rhand  1.570731925e-030 -25.9428997 18.57430077
rfingers  -90 -7.125020027 -90
rthumb  -89.60083768 -33.59330664 -89.2785978
rfemur  -28.29360008 12.08129978 14.31529999
rtibia  -0 0 40.84830093
rfoot  -0 -12.22229958 -13.97099972
rtoes  -1.575397198 19.94038992 -85.38945295
lfemur  5.19866991 -4.535930157 -31.69729996
ltibia  -0 0 20.84020042
lfoot  -0 -18.09700012 6.540009975
ltoes  -3.695914299 -19.66929668 -100.8636129
58
root  22.02999986 37.72933239 -45.72977682 -2.904210091 2.142990112 3.238559961
lowerback  5.569059849 -1.689020038 -3.639110088
upperback  3.188430071 -2.413269997 0.8489710093
thorax  0.3539879918 -1.264700055 3.034670115
lowerneck  -12.69229984 3.400219917 -1.342479944
upperneck  -2.834939957 4.715280056 -1.764009953
head  1.248289943 2.318619967 -0.1001780033
lclavicle  0 -1.620099928e-014 -1.431250036e-014
lhumerus  -24.09539986 -6.598499775 90.92500305
lradius  -1.798788398e-031 -3.03861882e-031 59.37549973
lwrist  -2.824900031e-030 3.531125038e-031 28.22719955
lhand  -1.522208093e-030 -21.89089966 22.84740067
lfingers  90 7.125020027 -90
lthumb  90.61603193 7.755020578 85.4441456
rclavicle  0 -1.620099928e-014 -1.431250036e-014
rhumerus  -40.88240051 -5.210229874 -82.91079712
rradius  3.293762863e-031 1.272780516e-031 21.12759972
rwrist  2.824900031e-030 -4.237350046e-030 -7.379209995
rhand  1.570731925e-030 -25.9428997 18.57430077
rfingers  -90 -7.125020027 -90
rthumb  -89.60083768 -33.59330664 -89.2785978
rfemur  -28.21459961 11.98789978 13.92300034
rtibia  -0 0 38.16500092
rfoot  -0 -12.2191 -13.76570034
rtoes  -1.575397198 19.94038992 -85.38945295
lfemur  6.262499809 -4.576550007 -31.89480019
ltibia  -0 0 19.96969986
lfoot  9.276854272e-032 -17.89979935 6.237440109
ltoes  -3.695914299 -19.66929668 -100.8636129
59
root  22.01444371 37.72644584 -45.36799934 -2.944469929 2.41979003 3.063299894
lowerback  5.723680019 -1.804370046 -3.487590075
upperback  3.116470098 -2.565380096 0.9531310201
thorax  0.2037049979 -1.335600019 3.071660042
lowerneck  -12.37989998 3.378070116 -1.64459002
upperneck  -3.036250114 4.715260029 -1.644440055
head  1.117750049 2.328180075 -0.0216595009
lclavicle  0 -1.620099928e-014 -1.431250036e-014
lhumerus  -24.17480087 -6.821119785 90.98459625
lradius  -1.747657869e-031 -3.068311589e-031 60.3348999
lwrist  0 -2.295231275e-030 28.31200027
lhand  -1.522208093e-030 -21.89089966 22.84740067
lfingers  90 7.125020027 -90
lthumb  90.61603193 7.755020578 85.4441456
rclavicle  0 -1.620099928e-014 -1.431250036e-014
rhumerus  -41.64179993 -5.679430008 -82.478302
rradius  3.29846071e-031 1.260555823e-031 20.9151001
rwrist  2.824900031e-030 -1.412450015e-030 -6.866499901
rhand  1.570731925e-030 -25.9428997 18.57430077
rfingers  -90 -7.125020027 -90
rthumb  -89.60083768 -33.59330664 -89.2785978
rfemur  -28.16760063 11.82450008 14.06960011
rtibia  -0 0 35.60839844
rfoot  -0 -12.37849998 -13.6413002
rtoes  -1.575397198 19.94038992 -85.38945295
lfemur  7.367949963 -4.546090126 -31.66600037
ltibia  -0 0 19.09959984
lfoot  4.632527823e-032 -17.67250061 5.950960159
ltoes  -3.695914299 -19.66929668 -100.8636129
60
root  22.00177711 37.74422172 -44.99533345 -2.846329927 2.584379911 2.646209955
lowerback  5.623579979 -1.835090041 -2.959409952
upperback  3.106300116 -2.577559948 1.004830003
thorax  0.2269639969 -1.335630059 2.825639963
lowerneck  -12.51179981 3.300899982 -1.476240039
upperneck  -3.049770117 4.594120026 -1.756790042
head  1.143300056 2.263190031 -0.08767200261
lclavicle  0 -1.620099928e-014 -1.431250036e-014
lhumerus  -24.02260017 -7.282040119 90.88800049
lradius  -1.708871739e-031 -3.090081134e-031 61.05659866
lwrist  0 2.648343779e-031 28.31909943
lhand  -1.522208093e-030 -21.89089966 22.84740067
lfingers  90 7.125020027 -90
lthumb  90.61603193 7.755020578 85.4441456
rclavicle  0 -1.620099928e-014 -1.431250036e-014
rhumerus  -42.30039978 -6.554959774 -82.04910278
rradius  3.303929506e-031 1.246151619e-031 20.6651001
rwrist  0 -1.412450015e-030 -6.248099804
rhand  1.570731925e-030 -25.9428997 18.57430077
rfingers  -90 -7.125020027 -90
rthumb  -89.60083768 -33.59330664 -89.2785978
rfemur  -28.39340019 11.62969971 14.50500011
rtibia  -0 0 33.2928009
rfoot  -0 -12.77910042 -13.33640003
rtoes  -1.575397198 19.94038992 -85.38945295
lfemur  8.38891983 -4.410140038 -31.12330055
ltibia  -0 0 18.06049919
lfoot  4.625922741e-032 -17.41390038 5.725220203
ltoes  -3.695914299 -19.66929668 -100.8636129
